<svg id="Grupo_179417" data-name="Grupo 179417" xmlns="http://www.w3.org/2000/svg" xmlns:xlink="http://www.w3.org/1999/xlink" width="198" height="54.266" viewBox="0 0 198 54.266">
  <defs>
    <clipPath id="clip-path">
      <rect id="Retângulo_3" data-name="Retângulo 3" width="198" height="39.02" fill="#fff"/>
    </clipPath>
  </defs>
  <g id="Grupo_18" data-name="Grupo 18" transform="translate(0 0)">
    <g id="Grupo_1" data-name="Grupo 1" clip-path="url(#clip-path)">
      <path id="Caminho_1" data-name="Caminho 1" d="M18.966,24.5A5.921,5.921,0,0,0,15.412,22.3a6.115,6.115,0,0,0,3.137-2.067A5.819,5.819,0,0,0,19.727,16.5a5.882,5.882,0,0,0-2.194-4.823A9.389,9.389,0,0,0,11.459,9.9H0V30.316H6.165v5.041h5.693a9.417,9.417,0,0,0,6.219-1.868,6.25,6.25,0,0,0,2.23-5.059A6.223,6.223,0,0,0,18.966,24.5M6.2,14.868h4.062a3.523,3.523,0,0,1,2.339.689,2.466,2.466,0,0,1,.816,1.995,2.409,2.409,0,0,1-.816,1.976,3.6,3.6,0,0,1-2.339.671H6.2Zm6.981,14.777a3.677,3.677,0,0,1-2.412.707H6.2V24.732h4.5a3.636,3.636,0,0,1,2.448.762,2.625,2.625,0,0,1,.888,2.1,2.505,2.505,0,0,1-.852,2.049" transform="translate(0 -6.31)" fill="#fff"/>
      <path id="Caminho_2" data-name="Caminho 2" d="M72.1,27.29V23.918H65.9V44.153h6.2V34.76a4.429,4.429,0,0,1,1.16-3.5,5.225,5.225,0,0,1,3.481-1h1.7V23.7a7.015,7.015,0,0,0-3.626.961A8.191,8.191,0,0,0,72.1,27.29" transform="translate(-42.002 -15.105)" fill="#fff"/>
      <rect id="Retângulo_1" data-name="Retângulo 1" width="6.201" height="20.235" transform="translate(39.418 8.812)" fill="#fff"/>
      <path id="Caminho_3" data-name="Caminho 3" d="M110.8,0a3.761,3.761,0,0,0-2.665.961A3.156,3.156,0,0,0,107.1,3.373a3.114,3.114,0,0,0,1.034,2.375,3.758,3.758,0,0,0,2.665.961,3.709,3.709,0,0,0,2.629-.961,3.114,3.114,0,0,0,1.033-2.375A3.156,3.156,0,0,0,113.427.961,3.712,3.712,0,0,0,110.8,0" transform="translate(-68.261 0)" fill="#fff"/>
      <path id="Caminho_4" data-name="Caminho 4" d="M149.958,23.79v2.865a6.428,6.428,0,0,0-2.484-2.285,7.794,7.794,0,0,0-3.753-.87,8.386,8.386,0,0,0-4.533,1.269,8.758,8.758,0,0,0-3.209,3.626,12.078,12.078,0,0,0-1.179,5.476,12.2,12.2,0,0,0,1.179,5.494,8.862,8.862,0,0,0,3.209,3.663,8.278,8.278,0,0,0,4.533,1.287,7.577,7.577,0,0,0,3.735-.888,6.887,6.887,0,0,0,2.5-2.3v2.865a4.74,4.74,0,0,1-1.142,3.536,4.225,4.225,0,0,1-3.064,1.106,5.028,5.028,0,0,1-2.684-.671,2.93,2.93,0,0,1-1.378-1.831h-6.129a7.993,7.993,0,0,0,3.191,5.748A11.724,11.724,0,0,0,146.042,54a10.9,10.9,0,0,0,5.639-1.342,8.458,8.458,0,0,0,3.373-3.608,11.405,11.405,0,0,0,1.106-5.059V23.79Zm-1.287,13.78a4.317,4.317,0,0,1-6.274-.018,5.128,5.128,0,0,1-1.287-3.681,5,5,0,0,1,1.287-3.645,4.358,4.358,0,0,1,6.274.018,5.08,5.08,0,0,1,1.287,3.663,5.08,5.08,0,0,1-1.287,3.663" transform="translate(-85.916 -14.978)" fill="#fff"/>
      <path id="Caminho_5" data-name="Caminho 5" d="M218.536,12.481a8.231,8.231,0,0,0-3.663.8,6.634,6.634,0,0,0-2.575,2.14V6.1h-6.2V32.934h6.2V21.947a4.441,4.441,0,0,1,1.052-3.155,4.122,4.122,0,0,1,5.657,0,4.444,4.444,0,0,1,1.052,3.155V32.934h6.165V21.113a9.031,9.031,0,0,0-2.1-6.328,7.2,7.2,0,0,0-5.585-2.3" transform="translate(-131.359 -3.887)" fill="#fff"/>
      <path id="Caminho_6" data-name="Caminho 6" d="M278.5,30.209a1.7,1.7,0,0,1-.435-1.306V20.781h4.062V15.631h-4.062V10.7h-6.2v4.932H269.4v5.149h2.466v8.05q0,3.735,1.885,5.386a7.722,7.722,0,0,0,5.258,1.65h3.155V30.608h-2.212a2.122,2.122,0,0,1-1.45-.4" transform="translate(-171.703 -6.819)" fill="#fff"/>
      <path id="Caminho_7" data-name="Caminho 7" d="M326.426,23.7a8.074,8.074,0,0,0-3.59.78A6.547,6.547,0,0,0,320.3,26.6V23.917h-6.2V44.152h6.2V33.164a4.439,4.439,0,0,1,1.052-3.155,4.122,4.122,0,0,1,5.657,0,4.445,4.445,0,0,1,1.052,3.155V44.152h6.165V32.33A8.98,8.98,0,0,0,332.1,26a7.342,7.342,0,0,0-5.675-2.3" transform="translate(-200.193 -15.105)" fill="#fff"/>
      <path id="Caminho_8" data-name="Caminho 8" d="M397.755,28.414a9.35,9.35,0,0,0-3.771-3.645,11.982,11.982,0,0,0-10.734,0,9.328,9.328,0,0,0-3.772,3.645,10.731,10.731,0,0,0-1.378,5.494,10.834,10.834,0,0,0,1.36,5.512,9.286,9.286,0,0,0,3.735,3.626,11.173,11.173,0,0,0,5.349,1.269,11.411,11.411,0,0,0,5.385-1.269,9.441,9.441,0,0,0,3.808-3.645,10.669,10.669,0,0,0,1.4-5.494,10.767,10.767,0,0,0-1.378-5.494m-6.183,9.229a4.044,4.044,0,0,1-3.028,1.306,3.809,3.809,0,0,1-2.956-1.306,5.38,5.38,0,0,1-1.179-3.735,5.326,5.326,0,0,1,1.2-3.753,4.121,4.121,0,0,1,6,.018,5.286,5.286,0,0,1,1.215,3.735,5.185,5.185,0,0,1-1.251,3.735" transform="translate(-240.987 -14.978)" fill="#fff"/>
      <path id="Caminho_9" data-name="Caminho 9" d="M464.707,24.3l-2.828,14.4-3.445-14.4H451.87l-3.409,14.469L445.6,24.3h-6.2l5.512,20.235h6.818l3.3-13.127,3.191,13.127h6.854L470.546,24.3Z" transform="translate(-280.054 -15.488)" fill="#fff"/>
      <rect id="Retângulo_2" data-name="Retângulo 2" width="6.165" height="5.04" transform="translate(191.835 24.007)" fill="#fff"/>
    </g>
  </g>
  <text id="Smart_Augmented_Ops." data-name="Smart Augmented Ops." transform="translate(22.111 50.266)" fill="#fff" font-size="12" font-family="Poppins-Medium, Poppins" font-weight="500"><tspan x="0" y="0">Smart </tspan><tspan y="0" font-family="Poppins-Bold, Poppins" font-weight="700">Augmented</tspan><tspan y="0" xml:space="preserve"> Ops.</tspan></text>
</svg>
